<svg xmlns="http://www.w3.org/2000/svg" xmlns:xlink="http://www.w3.org/1999/xlink" width="1200" zoomAndPan="magnify" viewBox="0 0 900 899.99999" height="1200" preserveAspectRatio="xMidYMid meet" version="1.0"><defs><clipPath id="f32abc3db2"><path d="M 354 45.566406 L 533 45.566406 L 533 225 L 354 225 Z M 354 45.566406 " clip-rule="nonzero"/></clipPath><clipPath id="68db039411"><path d="M 45.566406 354 L 225 354 L 225 533 L 45.566406 533 Z M 45.566406 354 " clip-rule="nonzero"/></clipPath></defs><rect x="-90" width="1080" fill="#ffffff" y="-89.999999" height="1079.999988" fill-opacity="1"/><rect x="-90" width="1080" fill="#ffffff" y="-89.999999" height="1079.999988" fill-opacity="1"/><rect x="-90" width="1080" fill="#ffffff" y="-89.999999" height="1079.999988" fill-opacity="1"/><path fill="#ffffff" d="M 636.230469 443.710938 C 636.230469 549.902344 550.148438 635.992188 443.949219 635.992188 C 337.761719 635.992188 251.679688 549.902344 251.679688 443.710938 C 251.679688 337.519531 337.761719 251.4375 443.949219 251.4375 C 550.148438 251.4375 636.230469 337.519531 636.230469 443.710938 " fill-opacity="1" fill-rule="nonzero"/><path fill="#fabe92" d="M 550.113281 563.472656 C 543.902344 563.394531 537.898438 562.40625 532.503906 560.332031 C 527.109375 558.253906 522.339844 555.089844 518.375 551.015625 C 514.394531 546.949219 511.195312 541.992188 508.769531 536.5625 C 508.289062 535.472656 507.859375 534.355469 507.429688 533.222656 C 503.363281 529.9375 500.601562 525.425781 499.160156 520.46875 L 482.628906 522.785156 C 482.863281 524.132812 483.066406 525.015625 483.324219 526.0625 C 483.566406 527.054688 483.820312 528.027344 484.097656 528.996094 C 484.652344 530.917969 485.273438 532.804688 485.949219 534.65625 C 487.3125 538.378906 488.917969 541.992188 490.804688 545.5 C 494.570312 552.507812 499.484375 559.113281 505.671875 564.570312 C 511.820312 570.035156 519.257812 574.183594 527.054688 576.511719 C 534.863281 578.878906 542.890625 579.511719 550.5625 579.039062 L 550.113281 563.472656 " fill-opacity="1" fill-rule="nonzero"/><path fill="#fabe92" d="M 546.539062 572.746094 C 546.863281 576.175781 548.492188 581.003906 555.878906 582.867188 C 564.125 584.917969 565.710938 582.359375 568.925781 584.882812 C 572.777344 587.917969 577.898438 584.246094 569.949219 578.570312 C 569.949219 578.570312 569.089844 577.589844 573.371094 578.097656 C 577.640625 578.613281 581.109375 578.242188 581.460938 575.945312 C 581.828125 573.644531 579.488281 572.390625 571.5 571.269531 C 570.503906 571.132812 568.539062 569.382812 571.542969 569.363281 C 574.546875 569.347656 584.023438 569.40625 583.117188 564.878906 C 582.265625 560.683594 577.875 561.695312 574.117188 562.117188 C 573.078125 562.234375 570.230469 563.238281 569.414062 561.960938 C 568.695312 560.835938 578.894531 556.394531 576.304688 553.03125 C 573.722656 549.652344 568.617188 553.441406 566.171875 555.398438 C 563.675781 557.378906 560.144531 559.609375 559.738281 557.476562 C 559.363281 555.347656 559.808594 550.5 556.695312 550.347656 C 552.929688 550.140625 554.230469 557.84375 550.75 561.257812 C 548.589844 563.367188 546.101562 568.121094 546.539062 572.746094 " fill-opacity="1" fill-rule="nonzero"/><path fill="#fabe92" d="M 343.609375 563.472656 C 349.828125 563.394531 355.835938 562.40625 361.222656 560.332031 C 366.625 558.253906 371.386719 555.089844 375.359375 551.015625 C 379.332031 546.949219 382.539062 541.992188 384.957031 536.5625 C 385.445312 535.472656 385.875 534.355469 386.304688 533.222656 C 390.371094 529.9375 393.125 525.425781 394.574219 520.46875 L 411.105469 522.785156 C 410.871094 524.132812 410.660156 525.015625 410.410156 526.0625 C 410.167969 527.054688 409.910156 528.027344 409.636719 528.996094 C 409.078125 530.917969 408.460938 532.804688 407.785156 534.65625 C 406.421875 538.378906 404.816406 541.992188 402.929688 545.5 C 399.164062 552.507812 394.238281 559.113281 388.0625 564.570312 C 381.902344 570.035156 374.464844 574.183594 366.667969 576.511719 C 358.871094 578.878906 350.84375 579.511719 343.171875 579.039062 L 343.609375 563.472656 " fill-opacity="1" fill-rule="nonzero"/><path fill="#fabe92" d="M 347.195312 572.746094 C 346.863281 576.175781 345.230469 581.003906 337.855469 582.867188 C 329.609375 584.917969 328.015625 582.359375 324.808594 584.882812 C 320.945312 587.917969 315.835938 584.246094 323.777344 578.570312 C 323.777344 578.570312 324.636719 577.589844 320.363281 578.097656 C 316.082031 578.613281 312.625 578.242188 312.273438 575.945312 C 311.90625 573.644531 314.246094 572.390625 322.234375 571.269531 C 323.21875 571.132812 325.195312 569.382812 322.191406 569.363281 C 319.1875 569.347656 309.710938 569.40625 310.609375 564.878906 C 311.46875 560.683594 315.851562 561.695312 319.609375 562.117188 C 320.65625 562.234375 323.503906 563.238281 324.320312 561.960938 C 325.03125 560.835938 314.832031 556.394531 317.429688 553.03125 C 320.011719 549.652344 325.109375 553.441406 327.5625 555.398438 C 330.058594 557.378906 333.589844 559.609375 333.984375 557.476562 C 334.363281 555.347656 333.917969 550.5 337.039062 550.347656 C 340.804688 550.140625 339.5 557.84375 342.984375 561.257812 C 345.144531 563.367188 347.632812 568.121094 347.195312 572.746094 " fill-opacity="1" fill-rule="nonzero"/><path fill="#f68712" d="M 480.863281 560.367188 L 519.902344 548.21875 C 519.902344 548.21875 502.925781 509.839844 487.992188 514.507812 C 473.039062 519.15625 480.863281 560.367188 480.863281 560.367188 " fill-opacity="1" fill-rule="nonzero"/><path fill="#f68712" d="M 409.054688 561.566406 L 370.015625 549.402344 C 370.015625 549.402344 386.984375 511.050781 401.933594 515.691406 C 416.878906 520.339844 409.054688 561.566406 409.054688 561.566406 " fill-opacity="1" fill-rule="nonzero"/><path fill="#f57815" d="M 496.242188 621.890625 L 488 515.296875 C 478.273438 502.753906 455.898438 501.683594 447.382812 499.597656 L 447.382812 498.972656 C 447.382812 498.972656 446.894531 499.082031 446.0625 499.273438 C 445.21875 499.082031 444.730469 498.972656 444.730469 498.972656 L 444.722656 498.988281 L 444.722656 499.597656 C 436.214844 501.683594 415.496094 501.125 399.789062 515.296875 L 397.457031 618.132812 C 397.457031 618.132812 407.683594 627.78125 446.378906 627.78125 C 483.832031 627.78125 496.242188 621.890625 496.242188 621.890625 " fill-opacity="1" fill-rule="nonzero"/><path fill="#f5b17e" d="M 471.304688 504.890625 C 471.304688 514.199219 454.691406 531.457031 448.566406 531.457031 C 441.121094 531.457031 425.800781 514.199219 425.800781 504.890625 C 425.800781 495.558594 435.988281 488.007812 448.566406 488.007812 C 461.125 488.007812 471.304688 495.558594 471.304688 504.890625 " fill-opacity="1" fill-rule="nonzero"/><path fill="#f2581a" d="M 471.332031 503.25 L 471.210938 503.414062 C 471.261719 503.902344 471.304688 504.382812 471.304688 504.890625 C 471.304688 513.835938 455.996094 530.074219 449.355469 531.335938 C 457.082031 537.042969 467.996094 535.617188 473.964844 528.027344 C 479.96875 520.390625 478.753906 509.429688 471.332031 503.25 " fill-opacity="1" fill-rule="nonzero"/><path fill="#f2581a" d="M 425.320312 503.25 L 425.4375 503.414062 C 425.386719 503.902344 425.335938 504.382812 425.335938 504.890625 C 425.335938 513.835938 440.65625 530.074219 447.296875 531.335938 C 439.574219 537.042969 428.664062 535.617188 422.683594 528.027344 C 416.679688 520.390625 417.898438 509.429688 425.320312 503.25 " fill-opacity="1" fill-rule="nonzero"/><path fill="#fabe92" d="M 543.859375 421.21875 C 543.859375 470.097656 501.183594 509.726562 448.558594 509.726562 C 395.921875 509.726562 353.253906 470.097656 353.253906 421.21875 C 353.253906 372.320312 395.921875 332.699219 448.558594 332.699219 C 501.183594 332.699219 543.859375 372.320312 543.859375 421.21875 " fill-opacity="1" fill-rule="nonzero"/><path fill="#fabe92" d="M 543.859375 424.390625 L 543.777344 424.390625 C 543.808594 423.335938 543.859375 422.28125 543.859375 421.21875 C 543.859375 372.320312 501.183594 332.699219 448.558594 332.699219 C 395.921875 332.699219 353.253906 372.320312 353.253906 421.21875 C 353.253906 422.28125 353.304688 423.335938 353.339844 424.390625 L 353.253906 424.390625 C 345.808594 424.390625 339.777344 430.421875 339.777344 437.878906 C 339.777344 445.324219 345.808594 451.363281 353.253906 451.363281 C 355.140625 451.363281 356.925781 450.976562 358.546875 450.289062 C 371.488281 484.886719 406.890625 509.726562 448.558594 509.726562 C 490.222656 509.726562 525.617188 484.886719 538.578125 450.289062 C 540.199219 450.976562 541.984375 451.363281 543.859375 451.363281 C 551.308594 451.363281 557.347656 445.324219 557.347656 437.878906 C 557.347656 430.421875 551.308594 424.390625 543.859375 424.390625 " fill-opacity="1" fill-rule="nonzero"/><path fill="#411a09" d="M 487.269531 424.390625 C 487.269531 426.320312 485.71875 427.875 483.796875 427.875 C 481.867188 427.875 480.304688 426.320312 480.304688 424.390625 C 480.304688 422.460938 481.867188 420.902344 483.796875 420.902344 C 485.71875 420.902344 487.269531 422.460938 487.269531 424.390625 " fill-opacity="1" fill-rule="nonzero"/><path fill="#411a09" d="M 416.808594 424.390625 C 416.808594 426.320312 415.246094 427.875 413.328125 427.875 C 411.394531 427.875 409.84375 426.320312 409.84375 424.390625 C 409.84375 422.460938 411.394531 420.902344 413.328125 420.902344 C 415.246094 420.902344 416.808594 422.460938 416.808594 424.390625 " fill-opacity="1" fill-rule="nonzero"/><path fill="#411a09" d="M 448.238281 443.949219 C 443.230469 446.824219 438.632812 439.730469 443.382812 436.402344 C 444.128906 435.886719 443.417969 434.632812 442.664062 435.167969 C 439.9375 437.078125 439.128906 440.425781 440.800781 443.332031 C 442.449219 446.207031 446.257812 446.753906 448.96875 445.1875 C 449.765625 444.722656 449.046875 443.488281 448.238281 443.949219 " fill-opacity="1" fill-rule="nonzero"/><path fill="#a67d5f" d="M 356.625 433.871094 C 355.148438 434.164062 354.246094 435.320312 353.75 436.660156 C 351.210938 434.027344 347.589844 433.75 344.109375 434.582031 C 342.839844 434.890625 343.378906 436.839844 344.648438 436.539062 C 347.789062 435.777344 351.023438 436.023438 352.996094 438.863281 C 353.511719 439.601562 353.863281 440.449219 354.136719 441.308594 C 354.195312 441.523438 354.4375 442.785156 354.386719 442.3125 C 354.546875 443.574219 356.574219 443.597656 356.402344 442.3125 C 356.253906 441.128906 355.871094 439.953125 355.320312 438.871094 C 355.371094 437.859375 355.628906 436.890625 356.402344 436.195312 C 356.710938 435.929688 356.855469 435.878906 357.164062 435.820312 C 358.441406 435.585938 357.894531 433.632812 356.625 433.871094 " fill-opacity="1" fill-rule="nonzero"/><path fill="#a67d5f" d="M 540.488281 433.871094 C 541.957031 434.164062 542.875 435.320312 543.363281 436.660156 C 545.902344 434.027344 549.523438 433.75 553.003906 434.582031 C 554.273438 434.890625 553.734375 436.839844 552.464844 436.539062 C 549.324219 435.777344 546.089844 436.023438 544.128906 438.863281 C 543.605469 439.601562 543.253906 440.449219 542.984375 441.308594 C 542.917969 441.523438 542.675781 442.785156 542.730469 442.3125 C 542.574219 443.574219 540.550781 443.597656 540.714844 442.3125 C 540.867188 441.128906 541.253906 439.953125 541.792969 438.871094 C 541.742188 437.859375 541.492188 436.890625 540.714844 436.195312 C 540.402344 435.929688 540.265625 435.878906 539.949219 435.820312 C 538.679688 435.585938 539.21875 433.632812 540.488281 433.871094 " fill-opacity="1" fill-rule="nonzero"/><path fill="#f9a67c" d="M 492.8125 442.421875 C 492.8125 447.167969 488.816406 451.011719 483.863281 451.011719 C 478.941406 451.011719 474.925781 447.167969 474.925781 442.421875 C 474.925781 437.707031 478.941406 433.855469 483.863281 433.855469 C 488.816406 433.855469 492.8125 437.707031 492.8125 442.421875 " fill-opacity="1" fill-rule="nonzero"/><path fill="#f9a67c" d="M 417.90625 442.421875 C 417.90625 447.167969 413.902344 451.011719 408.96875 451.011719 C 404.027344 451.011719 400.019531 447.167969 400.019531 442.421875 C 400.019531 437.707031 404.027344 433.855469 408.96875 433.855469 C 413.902344 433.855469 417.90625 437.707031 417.90625 442.421875 " fill-opacity="1" fill-rule="nonzero"/><path fill="#411a09" d="M 436.703125 499.511719 C 441.378906 501.640625 446.773438 501.519531 451.4375 499.511719 C 452.625 498.996094 451.609375 497.265625 450.417969 497.769531 C 446.488281 499.441406 441.667969 499.5625 437.722656 497.769531 C 436.546875 497.230469 435.519531 498.972656 436.703125 499.511719 " fill-opacity="1" fill-rule="nonzero"/><path fill="#82101c" d="M 474.667969 456.414062 C 463.988281 462.558594 429.71875 462.558594 419.039062 456.414062 C 410.5625 451.535156 412.253906 458.515625 413.359375 461.800781 C 414.957031 466.503906 426.546875 486.773438 446.851562 486.917969 C 467.164062 486.773438 478.742188 466.503906 480.347656 461.800781 C 481.453125 458.515625 483.144531 451.535156 474.667969 456.414062 " fill-opacity="1" fill-rule="nonzero"/><path fill="#f14b4b" d="M 462.015625 482.742188 C 457.683594 480.269531 452.613281 478.605469 446.851562 478.5625 C 441.078125 478.605469 436.023438 480.269531 431.691406 482.742188 C 436.023438 485.210938 441.085938 486.875 446.851562 486.917969 C 452.625 486.875 457.683594 485.210938 462.015625 482.742188 " fill-opacity="1" fill-rule="nonzero"/><path fill="#ffffff" d="M 476.09375 469.496094 C 478.417969 466.152344 479.859375 463.25 480.347656 461.800781 C 481.453125 458.515625 483.144531 451.535156 474.667969 456.414062 C 463.988281 462.558594 429.71875 462.558594 419.039062 456.414062 C 410.5625 451.535156 412.253906 458.515625 413.359375 461.800781 C 413.875 463.304688 415.402344 466.390625 417.90625 469.910156 C 428.03125 473.707031 448.152344 478.144531 476.09375 469.496094 " fill-opacity="1" fill-rule="nonzero"/><path fill="#924618" d="M 478.058594 369.414062 C 478.058594 369.414062 482.46875 398.511719 460.53125 404.59375 C 460.53125 404.59375 469.230469 373.273438 459.433594 366.378906 C 459.433594 366.378906 458.328125 387.066406 442.742188 390.035156 C 442.742188 390.035156 449.3125 369.679688 441.78125 364.722656 C 441.78125 364.722656 426.941406 384.402344 389.976562 385.6875 C 389.976562 385.6875 358.726562 413.832031 370.933594 464.605469 C 370.933594 464.605469 339.777344 439.695312 360.167969 381.441406 C 374.183594 341.347656 430.542969 320.347656 481.265625 333.214844 C 481.265625 333.214844 524.75 347.238281 536.921875 381.15625 C 549.101562 415.078125 544.546875 441.984375 526.199219 464.605469 C 526.199219 464.605469 540.121094 440.546875 530.109375 417.667969 C 519.558594 393.578125 485.914062 400.457031 478.058594 369.414062 " fill-opacity="1" fill-rule="nonzero"/><path fill="#a34e1b" d="M 386.484375 378.421875 C 397.234375 372.140625 433.691406 371.714844 428.148438 355.019531 C 422.609375 338.335938 372.195312 348.988281 364.09375 397 C 363.976562 397.722656 382.761719 380.601562 386.484375 378.421875 " fill-opacity="1" fill-rule="nonzero"/><path fill="#a34e1b" d="M 536.296875 414.765625 C 536.296875 414.765625 536.03125 368.300781 497.949219 349.023438 C 459.871094 329.773438 468.175781 363.082031 482.707031 363.554688 C 497.238281 364.035156 523.832031 375.539062 536.296875 414.765625 " fill-opacity="1" fill-rule="nonzero"/><path fill="#a34e1b" d="M 519.328125 398.890625 C 519.328125 398.890625 521.078125 390.953125 506.304688 377.289062 C 491.542969 363.640625 482.339844 373.316406 490.425781 381.421875 C 498.523438 389.523438 513.453125 388.570312 519.328125 398.890625 " fill-opacity="1" fill-rule="nonzero"/><path fill="#924618" d="M 534.203125 372.914062 C 534.203125 372.914062 540.746094 355.242188 559.816406 353.972656 C 578.886719 352.695312 605.582031 380.933594 588.800781 406.101562 C 572.023438 431.261719 580.414062 441.617188 586.511719 447.003906 C 586.511719 447.003906 562.613281 433.039062 561.601562 418.816406 C 560.582031 404.566406 563.292969 385.414062 543.886719 388.800781 L 534.203125 372.914062 " fill-opacity="1" fill-rule="nonzero"/><path fill="#a34e1b" d="M 543.167969 370.574219 C 543.167969 370.574219 566.414062 356.28125 578.449219 370.574219 C 597.339844 392.988281 569.097656 395.335938 572.53125 416.570312 C 572.53125 416.570312 563.410156 404.128906 564.15625 392.882812 C 564.902344 381.621094 551.523438 369.585938 543.167969 370.574219 " fill-opacity="1" fill-rule="nonzero"/><path fill="#f68712" d="M 552.105469 399.042969 C 552.75 397.757812 553.65625 396.351562 557.039062 395.226562 C 561.867188 393.628906 564.457031 390.707031 561.007812 385.292969 C 557.542969 379.886719 543.183594 379.589844 543.183594 379.589844 L 540.25 381.570312 L 537.324219 383.558594 C 537.324219 383.558594 532.296875 397.027344 536.039062 402.234375 C 539.785156 407.441406 543.464844 406.101562 546.734375 402.21875 C 549.027344 399.480469 550.671875 399.171875 552.105469 399.042969 " fill-opacity="1" fill-rule="nonzero"/><path fill="#c75312" d="M 542.910156 381.371094 C 542.910156 381.371094 549.300781 380.910156 552.269531 387.058594 C 552.269531 387.058594 547.085938 383.671875 544.96875 384.914062 C 544.96875 384.914062 547.574219 388.140625 548.46875 390.707031 C 548.46875 390.707031 545.183594 390.535156 543.320312 386.023438 C 543.320312 386.023438 540.523438 389.46875 542.152344 392.808594 C 542.152344 392.808594 537.925781 390.113281 538.765625 383.878906 L 542.910156 381.371094 " fill-opacity="1" fill-rule="nonzero"/><path fill="#f68712" d="M 526.34375 361.066406 C 525.699219 362.363281 524.792969 363.769531 521.410156 364.886719 C 516.582031 366.488281 513.984375 369.414062 517.441406 374.820312 C 520.898438 380.222656 535.257812 380.53125 535.257812 380.53125 L 538.191406 378.542969 L 541.125 376.558594 C 541.125 376.558594 546.152344 363.09375 542.410156 357.886719 C 538.65625 352.679688 534.992188 354.007812 531.714844 357.902344 C 529.425781 360.621094 527.777344 360.949219 526.34375 361.066406 " fill-opacity="1" fill-rule="nonzero"/><path fill="#c75312" d="M 535.53125 378.746094 C 535.53125 378.746094 529.148438 379.210938 526.179688 373.058594 C 526.179688 373.058594 531.363281 376.429688 533.488281 375.214844 C 533.488281 375.214844 530.875 371.980469 529.980469 369.414062 C 529.980469 369.414062 533.265625 369.585938 535.128906 374.097656 C 535.128906 374.097656 537.925781 370.640625 536.296875 367.3125 C 536.296875 367.3125 540.523438 370.007812 539.675781 376.25 L 535.53125 378.746094 " fill-opacity="1" fill-rule="nonzero"/><path fill="#f68712" d="M 542.144531 383.421875 C 540.222656 384.71875 537.609375 384.21875 536.320312 382.296875 C 535.007812 380.386719 535.515625 377.777344 537.425781 376.472656 C 539.359375 375.179688 541.964844 375.675781 543.269531 377.589844 C 544.566406 379.503906 544.058594 382.117188 542.144531 383.421875 " fill-opacity="1" fill-rule="nonzero"/><path fill="#924618" d="M 365.65625 372.914062 C 365.65625 372.914062 359.113281 355.242188 340.042969 353.972656 C 320.972656 352.695312 294.277344 380.933594 311.054688 406.101562 C 327.835938 431.261719 319.445312 441.617188 313.347656 447.003906 C 313.347656 447.003906 337.246094 433.039062 338.265625 418.816406 C 339.277344 404.566406 336.566406 385.414062 355.972656 388.800781 L 365.65625 372.914062 " fill-opacity="1" fill-rule="nonzero"/><path fill="#a34e1b" d="M 356.691406 370.574219 C 356.691406 370.574219 333.445312 356.28125 321.417969 370.574219 C 302.53125 392.988281 330.761719 395.335938 327.328125 416.570312 C 327.328125 416.570312 336.449219 404.128906 335.703125 392.882812 C 334.957031 381.621094 348.335938 369.585938 356.691406 370.574219 " fill-opacity="1" fill-rule="nonzero"/><path fill="#f68712" d="M 347.761719 399.042969 C 347.109375 397.757812 346.203125 396.351562 342.820312 395.226562 C 338 393.628906 335.402344 390.707031 338.859375 385.292969 C 342.316406 379.886719 356.675781 379.589844 356.675781 379.589844 L 359.601562 381.570312 L 362.542969 383.558594 C 362.542969 383.558594 367.5625 397.027344 363.820312 402.234375 C 360.074219 407.441406 356.402344 406.101562 353.132812 402.21875 C 350.832031 399.480469 349.195312 399.171875 347.761719 399.042969 " fill-opacity="1" fill-rule="nonzero"/><path fill="#c75312" d="M 356.949219 381.371094 C 356.949219 381.371094 350.558594 380.910156 347.589844 387.058594 C 347.589844 387.058594 352.773438 383.671875 354.898438 384.914062 C 354.898438 384.914062 352.285156 388.140625 351.390625 390.707031 C 351.390625 390.707031 354.675781 390.535156 356.53125 386.023438 C 356.53125 386.023438 359.335938 389.46875 357.714844 392.808594 C 357.714844 392.808594 361.933594 390.113281 361.09375 383.878906 L 356.949219 381.371094 " fill-opacity="1" fill-rule="nonzero"/><path fill="#f68712" d="M 373.515625 361.066406 C 374.15625 362.363281 375.066406 363.769531 378.445312 364.886719 C 383.277344 366.488281 385.867188 369.414062 382.417969 374.820312 C 378.960938 380.222656 364.59375 380.53125 364.59375 380.53125 L 361.667969 378.542969 L 358.734375 376.558594 C 358.734375 376.558594 353.707031 363.09375 357.457031 357.886719 C 361.195312 352.679688 364.875 354.007812 368.144531 357.902344 C 370.433594 360.621094 372.074219 360.949219 373.515625 361.066406 " fill-opacity="1" fill-rule="nonzero"/><path fill="#c75312" d="M 364.328125 378.746094 C 364.328125 378.746094 370.710938 379.210938 373.6875 373.058594 C 373.6875 373.058594 368.503906 376.429688 366.367188 375.214844 C 366.367188 375.214844 368.984375 371.980469 369.878906 369.414062 C 369.878906 369.414062 366.601562 369.585938 364.738281 374.097656 C 364.738281 374.097656 361.933594 370.640625 363.5625 367.3125 C 363.5625 367.3125 359.335938 370.007812 360.175781 376.25 L 364.328125 378.746094 " fill-opacity="1" fill-rule="nonzero"/><path fill="#f68712" d="M 357.714844 383.421875 C 359.636719 384.71875 362.242188 384.21875 363.539062 382.296875 C 364.84375 380.386719 364.34375 377.777344 362.429688 376.472656 C 360.511719 375.179688 357.894531 375.675781 356.605469 377.589844 C 355.292969 379.503906 355.792969 382.117188 357.714844 383.421875 " fill-opacity="1" fill-rule="nonzero"/><g clip-path="url(#f32abc3db2)"><path fill="#ffffff" d="M 532.984375 134.78125 C 532.984375 184.089844 493.019531 224.054688 443.703125 224.054688 C 394.402344 224.054688 354.429688 184.089844 354.429688 134.78125 C 354.429688 85.464844 394.402344 45.5 443.703125 45.5 C 493.019531 45.5 532.984375 85.464844 532.984375 134.78125 " fill-opacity="1" fill-rule="nonzero"/></g><path fill="#ffffff" d="M 532.984375 752.636719 C 532.984375 801.953125 493.019531 841.921875 443.703125 841.921875 C 394.402344 841.921875 354.429688 801.953125 354.429688 752.636719 C 354.429688 703.339844 394.402344 663.363281 443.703125 663.363281 C 493.019531 663.363281 532.984375 703.339844 532.984375 752.636719 " fill-opacity="1" fill-rule="nonzero"/><path fill="#ffffff" d="M 841.914062 443.710938 C 841.914062 493.019531 801.945312 532.992188 752.636719 532.992188 C 703.332031 532.992188 663.355469 493.019531 663.355469 443.710938 C 663.355469 394.402344 703.332031 354.429688 752.636719 354.429688 C 801.945312 354.429688 841.914062 394.402344 841.914062 443.710938 " fill-opacity="1" fill-rule="nonzero"/><g clip-path="url(#68db039411)"><path fill="#ffffff" d="M 224.046875 443.710938 C 224.046875 493.019531 184.082031 532.992188 134.773438 532.992188 C 85.464844 532.992188 45.492188 493.019531 45.492188 443.710938 C 45.492188 394.402344 85.464844 354.429688 134.773438 354.429688 C 184.082031 354.429688 224.046875 394.402344 224.046875 443.710938 " fill-opacity="1" fill-rule="nonzero"/></g><path fill="#ffffff" d="M 752.636719 231.707031 C 752.636719 281.015625 712.671875 320.988281 663.355469 320.988281 C 614.058594 320.988281 574.082031 281.015625 574.082031 231.707031 C 574.082031 182.398438 614.058594 142.425781 663.355469 142.425781 C 712.671875 142.425781 752.636719 182.398438 752.636719 231.707031 " fill-opacity="1" fill-rule="nonzero"/><path fill="#ffffff" d="M 752.636719 663.363281 C 752.636719 712.671875 712.671875 752.636719 663.355469 752.636719 C 614.058594 752.636719 574.082031 712.671875 574.082031 663.363281 C 574.082031 614.058594 614.058594 574.082031 663.355469 574.082031 C 712.671875 574.082031 752.636719 614.058594 752.636719 663.363281 " fill-opacity="1" fill-rule="nonzero"/><path fill="#ffffff" d="M 314.847656 663.363281 C 314.847656 712.671875 274.882812 752.636719 225.574219 752.636719 C 176.265625 752.636719 136.292969 712.671875 136.292969 663.363281 C 136.292969 614.058594 176.265625 574.082031 225.574219 574.082031 C 274.882812 574.082031 314.847656 614.058594 314.847656 663.363281 " fill-opacity="1" fill-rule="nonzero"/><path fill="#ffffff" d="M 310.027344 231.707031 C 310.027344 281.015625 270.0625 320.988281 220.746094 320.988281 C 171.4375 320.988281 131.472656 281.015625 131.472656 231.707031 C 131.472656 182.398438 171.4375 142.425781 220.746094 142.425781 C 270.0625 142.425781 310.027344 182.398438 310.027344 231.707031 " fill-opacity="1" fill-rule="nonzero"/><path fill="#abd91a" d="M 785.8125 442.113281 C 785.8125 442.113281 763.824219 465.738281 763.824219 506.863281 L 748.007812 506.863281 C 748.007812 506.863281 748.625 461.921875 723.796875 446.042969 L 736.398438 438.984375 C 736.398438 438.984375 754.183594 462.726562 755.667969 477.601562 C 755.667969 477.601562 763.996094 452.503906 774.066406 438.984375 L 785.8125 442.113281 " fill-opacity="1" fill-rule="nonzero"/><path fill="#80cc28" d="M 800.847656 411.996094 C 802.445312 409.945312 803.40625 407.414062 803.40625 404.664062 C 803.40625 397.859375 797.621094 392.34375 790.476562 392.34375 C 787.585938 392.34375 784.925781 393.261719 782.773438 394.789062 C 782.414062 388.296875 776.785156 383.121094 769.871094 383.121094 C 765.4375 383.121094 761.527344 385.25 759.199219 388.5 C 757.074219 384.476562 752.707031 381.707031 747.65625 381.707031 C 740.6875 381.707031 735.019531 386.964844 734.753906 393.554688 C 732.847656 392.488281 730.636719 391.871094 728.269531 391.871094 C 721.128906 391.871094 715.339844 397.386719 715.339844 404.191406 C 715.339844 405.023438 715.433594 405.828125 715.589844 406.609375 C 715.160156 406.558594 714.714844 406.523438 714.269531 406.507812 C 707.132812 406.300781 701.167969 411.644531 700.953125 418.449219 C 700.757812 424.402344 705.046875 429.496094 710.90625 430.808594 C 709.628906 432.722656 708.871094 434.984375 708.871094 437.421875 C 708.871094 444.226562 714.664062 449.742188 721.800781 449.742188 C 723.765625 449.742188 725.625 449.304688 727.28125 448.566406 C 728.414062 454.269531 733.664062 458.59375 739.984375 458.59375 C 743.820312 458.59375 747.261719 456.980469 749.628906 454.449219 C 751.910156 457.933594 755.957031 460.257812 760.582031 460.257812 C 766.449219 460.257812 771.390625 456.535156 772.976562 451.4375 C 775.34375 454.082031 778.871094 455.769531 782.808594 455.769531 C 789.945312 455.769531 795.726562 450.253906 795.726562 443.453125 C 795.726562 440.269531 794.449219 437.371094 792.363281 435.183594 C 793.445312 435.464844 794.558594 435.628906 795.726562 435.628906 C 802.871094 435.628906 808.65625 430.105469 808.65625 423.300781 C 808.65625 418.234375 805.4375 413.882812 800.847656 411.996094 " fill-opacity="1" fill-rule="nonzero"/><path fill="#60991d" d="M 446.507812 743.347656 C 446.507812 743.347656 444.671875 727.53125 448.359375 711.96875 C 452.058594 696.40625 459.871094 686.996094 459.871094 686.996094 C 459.871094 686.996094 461.707031 702.816406 458.011719 718.378906 C 454.320312 733.9375 446.507812 743.347656 446.507812 743.347656 " fill-opacity="1" fill-rule="nonzero"/><path fill="#60991d" d="M 443.804688 743.347656 C 443.804688 743.347656 445.640625 727.53125 441.941406 711.96875 C 438.253906 696.40625 430.441406 686.996094 430.441406 686.996094 C 430.441406 686.996094 428.605469 702.816406 432.292969 718.378906 C 435.980469 733.9375 443.804688 743.347656 443.804688 743.347656 " fill-opacity="1" fill-rule="nonzero"/><path fill="#80cc28" d="M 447.21875 743.109375 C 447.21875 743.109375 449.550781 727.480469 456.828125 715.984375 C 464.109375 704.488281 473.570312 701.488281 473.570312 701.488281 C 473.570312 701.488281 471.238281 717.125 463.953125 728.621094 C 456.679688 740.105469 447.21875 743.109375 447.21875 743.109375 " fill-opacity="1" fill-rule="nonzero"/><path fill="#80cc28" d="M 442.027344 743.109375 C 442.027344 743.109375 439.703125 727.480469 432.421875 715.984375 C 425.148438 704.488281 415.683594 701.488281 415.683594 701.488281 C 415.683594 701.488281 418.019531 717.125 425.292969 728.621094 C 432.566406 740.105469 442.027344 743.109375 442.027344 743.109375 " fill-opacity="1" fill-rule="nonzero"/><path fill="#80cc28" d="M 444.953125 743.761719 C 444.953125 743.761719 439.765625 730.1875 439.765625 713.445312 C 439.765625 696.707031 444.953125 683.136719 444.953125 683.136719 C 444.953125 683.136719 450.144531 696.707031 450.144531 713.445312 C 450.144531 730.1875 444.953125 743.761719 444.953125 743.761719 " fill-opacity="1" fill-rule="nonzero"/><path fill="#f68712" d="M 456.988281 808.328125 C 455.726562 818.40625 455.386719 827.089844 444.371094 827.089844 C 433.363281 827.089844 432.796875 818.5625 431.230469 808.527344 C 427.164062 782.695312 423.902344 753.015625 423.902344 753.015625 C 423.902344 742.867188 432.832031 734.648438 443.839844 734.648438 C 454.851562 734.648438 463.785156 742.867188 463.785156 753.015625 C 463.785156 753.015625 459.546875 787.945312 456.988281 808.328125 " fill-opacity="1" fill-rule="nonzero"/><path fill="#a0560b" d="M 438.914062 756.808594 L 427.675781 756.808594 C 426.71875 756.808594 425.945312 756.035156 425.945312 755.074219 C 425.945312 754.121094 426.71875 753.351562 427.675781 753.351562 L 438.914062 753.351562 C 439.875 753.351562 440.648438 754.121094 440.648438 755.074219 C 440.648438 756.035156 439.875 756.808594 438.914062 756.808594 " fill-opacity="1" fill-rule="nonzero"/><path fill="#a0560b" d="M 459.519531 764.820312 L 448.28125 764.820312 C 447.332031 764.820312 446.550781 764.046875 446.550781 763.085938 C 446.550781 762.132812 447.332031 761.355469 448.28125 761.355469 L 459.519531 761.355469 C 460.480469 761.355469 461.253906 762.132812 461.253906 763.085938 C 461.253906 764.046875 460.480469 764.820312 459.519531 764.820312 " fill-opacity="1" fill-rule="nonzero"/><path fill="#a0560b" d="M 440.253906 776.152344 L 429.015625 776.152344 C 428.054688 776.152344 427.28125 775.378906 427.28125 774.417969 C 427.28125 773.464844 428.054688 772.695312 429.015625 772.695312 L 440.253906 772.695312 C 441.214844 772.695312 441.984375 773.464844 441.984375 774.417969 C 441.984375 775.378906 441.214844 776.152344 440.253906 776.152344 " fill-opacity="1" fill-rule="nonzero"/><path fill="#a0560b" d="M 456.027344 788.949219 L 444.773438 788.949219 C 443.820312 788.949219 443.050781 788.179688 443.050781 787.21875 C 443.050781 786.265625 443.820312 785.484375 444.773438 785.484375 L 456.027344 785.484375 C 456.980469 785.484375 457.753906 786.265625 457.753906 787.21875 C 457.753906 788.179688 456.980469 788.949219 456.027344 788.949219 " fill-opacity="1" fill-rule="nonzero"/><path fill="#a0560b" d="M 443.574219 802.28125 L 432.328125 802.28125 C 431.375 802.28125 430.601562 801.507812 430.601562 800.546875 C 430.601562 799.597656 431.375 798.824219 432.328125 798.824219 L 443.574219 798.824219 C 444.523438 798.824219 445.304688 799.597656 445.304688 800.546875 C 445.304688 801.507812 444.523438 802.28125 443.574219 802.28125 " fill-opacity="1" fill-rule="nonzero"/><path fill="#a0560b" d="M 453.902344 813.449219 L 442.664062 813.449219 C 441.703125 813.449219 440.929688 812.667969 440.929688 811.71875 C 440.929688 810.765625 441.703125 809.984375 442.664062 809.984375 L 453.902344 809.984375 C 454.863281 809.984375 455.632812 810.765625 455.632812 811.71875 C 455.632812 812.667969 454.863281 813.449219 453.902344 813.449219 " fill-opacity="1" fill-rule="nonzero"/><path fill="#f68579" d="M 268.695312 663.253906 C 265.695312 661.433594 262.1875 660.097656 258.488281 658.664062 C 246.144531 653.929688 237.945312 649.871094 236.382812 637.210938 C 234.136719 619.066406 216.59375 604.859375 196.441406 604.859375 C 184.117188 604.859375 172.878906 610.28125 164.789062 620.140625 C 156.46875 630.277344 153.664062 643.070312 156.648438 657.136719 C 161.425781 679.578125 180.09375 701.390625 205.382812 714.0625 C 215.5625 719.167969 226.800781 721.867188 237.882812 721.867188 L 237.894531 721.867188 C 260.917969 721.867188 280.800781 710.484375 285.167969 694.804688 C 286.71875 689.246094 288.210938 675.03125 268.695312 663.253906 " fill-opacity="1" fill-rule="nonzero"/><path fill="#bf1b2c" d="M 263.824219 669.414062 C 253.867188 663.398438 231.707031 661.820312 228.851562 638.710938 C 225.996094 615.601562 190.890625 602.277344 171.652344 625.722656 C 152.410156 649.167969 172.5 688.171875 208.949219 706.4375 C 253.066406 728.550781 301.328125 692.050781 263.824219 669.414062 " fill-opacity="1" fill-rule="nonzero"/><path fill="#ffffff" d="M 259.457031 688.480469 C 259.457031 693.824219 255.117188 698.167969 249.773438 698.167969 C 244.421875 698.167969 240.089844 693.824219 240.089844 688.480469 C 240.089844 683.128906 244.421875 678.796875 249.773438 678.796875 C 255.117188 678.796875 259.457031 683.128906 259.457031 688.480469 " fill-opacity="1" fill-rule="nonzero"/><path fill="#e36615" d="M 691.226562 644.75 C 691.226562 644.75 681.714844 620.257812 652.300781 630.082031 C 652.300781 630.082031 660.9375 654.820312 691.226562 644.75 " fill-opacity="1" fill-rule="nonzero"/><path fill="#e36615" d="M 652.300781 696.554688 C 652.300781 696.554688 661.8125 672.070312 691.226562 681.886719 C 691.226562 681.886719 682.597656 706.625 652.300781 696.554688 " fill-opacity="1" fill-rule="nonzero"/><path fill="#f68712" d="M 625.671875 670.289062 C 719.253906 715.046875 730.265625 661.296875 730.265625 661.296875 C 701.050781 610.308594 625.671875 661.296875 625.671875 661.296875 C 625.671875 661.296875 618.699219 639.492188 596.445312 639.492188 C 596.445312 639.492188 596.667969 663.84375 617.128906 664.035156 C 617.128906 664.035156 598.023438 670.0625 596.445312 684.449219 C 596.445312 684.449219 608.960938 686.25 615.027344 682.425781 C 620.5 678.976562 625.671875 670.289062 625.671875 670.289062 " fill-opacity="1" fill-rule="nonzero"/><path fill="#4b1615" d="M 717.460938 658.605469 C 717.460938 660.84375 715.640625 662.652344 713.410156 662.652344 C 711.179688 662.652344 709.359375 660.84375 709.359375 658.605469 C 709.359375 656.375 711.179688 654.5625 713.410156 654.5625 C 715.640625 654.5625 717.460938 656.375 717.460938 658.605469 " fill-opacity="1" fill-rule="nonzero"/><path fill="#c35711" d="M 700.300781 642.675781 C 700.226562 642.75 698.253906 644.699219 696.269531 648.128906 C 694.296875 651.550781 692.300781 656.484375 692.300781 662.464844 C 692.289062 668.441406 694.332031 675.417969 700.164062 682.707031 C 700.75 683.445312 701.820312 683.566406 702.558594 682.984375 C 703.296875 682.390625 703.417969 681.320312 702.832031 680.582031 C 697.421875 673.789062 695.714844 667.679688 695.714844 662.464844 C 695.703125 657.257812 697.453125 652.898438 699.222656 649.835938 C 700.105469 648.300781 700.996094 647.101562 701.648438 646.285156 C 701.976562 645.882812 702.25 645.574219 702.429688 645.375 L 702.636719 645.152344 L 702.6875 645.101562 L 702.695312 645.101562 C 703.363281 644.441406 703.375 643.359375 702.714844 642.691406 C 702.042969 642.023438 700.972656 642.011719 700.300781 642.675781 " fill-opacity="1" fill-rule="nonzero"/><path fill="#faba09" d="M 74.699219 432.445312 L 150.902344 394.472656 L 194.847656 432.445312 L 74.699219 432.445312 " fill-opacity="1" fill-rule="nonzero"/><path fill="#f39a0e" d="M 74.699219 473.246094 L 194.847656 473.246094 L 194.847656 432.445312 L 74.699219 432.445312 Z M 74.699219 473.246094 " fill-opacity="1" fill-rule="nonzero"/><path fill="#9e6208" d="M 94.121094 464.109375 C 91.460938 464.109375 89.308594 461.957031 89.308594 459.296875 C 89.308594 456.636719 91.460938 454.484375 94.121094 454.484375 C 96.78125 454.484375 98.941406 456.636719 98.941406 459.296875 C 98.941406 461.957031 96.78125 464.109375 94.121094 464.109375 " fill-opacity="1" fill-rule="nonzero"/><path fill="#9e6208" d="M 105.847656 452.691406 C 101.292969 452.691406 97.613281 449.003906 97.613281 444.457031 C 97.613281 439.910156 101.292969 436.222656 105.847656 436.222656 C 110.386719 436.222656 114.074219 439.910156 114.074219 444.457031 C 114.074219 449.003906 110.386719 452.691406 105.847656 452.691406 " fill-opacity="1" fill-rule="nonzero"/><path fill="#9e6208" d="M 122.746094 465.960938 C 120.292969 465.960938 118.304688 463.980469 118.304688 461.527344 C 118.304688 459.074219 120.292969 457.09375 122.746094 457.09375 C 125.191406 457.09375 127.183594 459.074219 127.183594 461.527344 C 127.183594 463.980469 125.191406 465.960938 122.746094 465.960938 " fill-opacity="1" fill-rule="nonzero"/><path fill="#9e6208" d="M 146.046875 464.066406 C 140.753906 464.066406 136.464844 459.777344 136.464844 454.484375 C 136.464844 449.191406 140.753906 444.902344 146.046875 444.902344 C 151.339844 444.902344 155.628906 449.191406 155.628906 454.484375 C 155.628906 459.777344 151.339844 464.066406 146.046875 464.066406 " fill-opacity="1" fill-rule="nonzero"/><path fill="#9e6208" d="M 167.816406 465.960938 C 165.027344 465.960938 162.773438 463.707031 162.773438 460.925781 C 162.773438 458.140625 165.027344 455.882812 167.816406 455.882812 C 170.597656 455.882812 172.851562 458.140625 172.851562 460.925781 C 172.851562 463.707031 170.597656 465.960938 167.816406 465.960938 " fill-opacity="1" fill-rule="nonzero"/><path fill="#9e6208" d="M 183.746094 451.6875 C 179.40625 451.6875 175.878906 448.171875 175.878906 443.832031 C 175.878906 439.480469 179.40625 435.964844 183.746094 435.964844 C 188.085938 435.964844 191.605469 439.480469 191.605469 443.832031 C 191.605469 448.171875 188.085938 451.6875 183.746094 451.6875 " fill-opacity="1" fill-rule="nonzero"/><path fill="#a27806" d="M 147.546875 413.453125 C 145.230469 413.453125 143.351562 411.578125 143.351562 409.261719 C 143.351562 406.933594 145.230469 405.058594 147.546875 405.058594 C 149.871094 405.058594 151.75 406.933594 151.75 409.261719 C 151.75 411.578125 149.871094 413.453125 147.546875 413.453125 " fill-opacity="1" fill-rule="nonzero"/><path fill="#a27806" d="M 161.246094 428.003906 C 157.238281 428.003906 153.980469 424.753906 153.980469 420.730469 C 153.980469 416.714844 157.238281 413.453125 161.246094 413.453125 C 165.269531 413.453125 168.519531 416.714844 168.519531 420.730469 C 168.519531 424.753906 165.269531 428.003906 161.246094 428.003906 " fill-opacity="1" fill-rule="nonzero"/><path fill="#a27806" d="M 134.507812 425.832031 C 131.695312 425.832031 129.414062 423.550781 129.414062 420.730469 C 129.414062 417.914062 131.695312 415.632812 134.507812 415.632812 C 137.328125 415.632812 139.613281 417.914062 139.613281 420.730469 C 139.613281 423.550781 137.328125 425.832031 134.507812 425.832031 " fill-opacity="1" fill-rule="nonzero"/><path fill="#a27806" d="M 117.503906 428.878906 C 114.8125 428.878906 112.625 426.691406 112.625 423.996094 C 112.625 421.304688 114.8125 419.117188 117.503906 419.117188 C 120.191406 419.117188 122.378906 421.304688 122.378906 423.996094 C 122.378906 426.691406 120.191406 428.878906 117.503906 428.878906 " fill-opacity="1" fill-rule="nonzero"/><path fill="#80cc28" d="M 666.066406 191.648438 C 666.066406 191.648438 654.511719 197.480469 644.476562 193.644531 C 634.449219 189.804688 629.738281 177.75 629.738281 177.75 C 629.738281 177.75 641.285156 171.925781 651.320312 175.761719 C 661.359375 179.601562 666.066406 191.648438 666.066406 191.648438 " fill-opacity="1" fill-rule="nonzero"/><path fill="#4b1615" d="M 667.851562 211.335938 L 667.851562 173.746094 C 667.851562 172.757812 667.054688 171.960938 666.066406 171.960938 C 665.070312 171.960938 664.273438 172.757812 664.273438 173.746094 L 664.273438 211.335938 C 664.273438 212.328125 665.070312 213.128906 666.066406 213.128906 C 667.054688 213.128906 667.851562 212.328125 667.851562 211.335938 " fill-opacity="1" fill-rule="nonzero"/><path fill="#ed1c24" d="M 666.066406 275.441406 C 666.066406 275.441406 666.496094 286.300781 649.984375 286.300781 C 633.46875 286.300781 614.777344 240.671875 614.777344 224.148438 C 614.777344 207.636719 623.46875 198.949219 643.027344 198.949219 C 662.585938 198.949219 666.066406 211.988281 666.066406 211.988281 C 666.066406 211.988281 669.542969 198.949219 689.097656 198.949219 C 708.648438 198.949219 717.347656 207.636719 717.347656 224.148438 C 717.347656 240.671875 698.65625 286.300781 682.140625 286.300781 C 665.628906 286.300781 666.066406 275.441406 666.066406 275.441406 " fill-opacity="1" fill-rule="nonzero"/><path fill="#ed1c24" d="M 495.910156 144.511719 C 495.910156 170.921875 472.292969 192.332031 443.179688 192.332031 C 414.046875 192.332031 390.441406 170.921875 390.441406 144.511719 C 390.441406 118.097656 414.046875 96.6875 443.179688 96.6875 C 472.292969 96.6875 495.910156 118.097656 495.910156 144.511719 " fill-opacity="1" fill-rule="nonzero"/><path fill="#6daf22" d="M 447.046875 111.210938 C 447.046875 111.210938 450.53125 101.679688 461.398438 94.671875 C 472.265625 87.660156 486.394531 85.824219 486.394531 85.824219 C 486.394531 85.824219 482.914062 95.363281 472.042969 102.375 C 461.175781 109.382812 447.046875 111.210938 447.046875 111.210938 " fill-opacity="1" fill-rule="nonzero"/><path fill="#6daf22" d="M 439.300781 111.210938 C 439.300781 111.210938 435.808594 101.679688 424.941406 94.671875 C 414.082031 87.660156 399.953125 85.824219 399.953125 85.824219 C 399.953125 85.824219 403.433594 95.363281 414.296875 102.375 C 425.164062 109.382812 439.300781 111.210938 439.300781 111.210938 " fill-opacity="1" fill-rule="nonzero"/><path fill="#6daf22" d="M 443.660156 111.605469 C 443.660156 111.605469 435.902344 103.335938 435.902344 93.117188 C 435.902344 82.910156 443.660156 74.632812 443.660156 74.632812 C 443.660156 74.632812 451.421875 82.910156 451.421875 93.117188 C 451.421875 103.335938 443.660156 111.605469 443.660156 111.605469 " fill-opacity="1" fill-rule="nonzero"/><path fill="#80cc28" d="M 445.976562 111.355469 C 445.976562 111.355469 443.238281 101.703125 448.746094 92.21875 C 454.261719 82.730469 465.9375 76.992188 465.9375 76.992188 C 465.9375 76.992188 468.679688 86.640625 463.164062 96.128906 C 457.648438 105.617188 445.976562 111.355469 445.976562 111.355469 " fill-opacity="1" fill-rule="nonzero"/><path fill="#80cc28" d="M 441.941406 111.355469 C 441.941406 111.355469 444.6875 101.703125 439.164062 92.21875 C 433.65625 82.730469 421.980469 76.992188 421.980469 76.992188 C 421.980469 76.992188 419.246094 86.640625 424.753906 96.128906 C 430.269531 105.617188 441.941406 111.355469 441.941406 111.355469 " fill-opacity="1" fill-rule="nonzero"/><path fill="#6daf22" d="M 423.175781 110.058594 C 417.667969 119.546875 420.402344 129.1875 420.402344 129.1875 C 420.402344 129.1875 432.078125 123.457031 437.59375 113.960938 C 441.625 107.023438 441.25 100.015625 440.75 96.738281 C 439.308594 96.796875 437.886719 96.917969 436.488281 97.082031 C 432.574219 99.585938 426.65625 104.070312 423.175781 110.058594 " fill-opacity="1" fill-rule="nonzero"/><path fill="#6daf22" d="M 447.175781 113.960938 C 452.691406 123.457031 464.367188 129.1875 464.367188 129.1875 C 464.367188 129.1875 467.101562 119.546875 461.597656 110.058594 C 458.019531 103.910156 451.875 99.34375 447.980469 96.890625 C 446.679688 96.78125 445.355469 96.71875 444.027344 96.703125 C 443.53125 99.964844 443.128906 106.996094 447.175781 113.960938 " fill-opacity="1" fill-rule="nonzero"/><path fill="#80cc28" d="M 407.785156 109.046875 C 401.996094 114.792969 399.953125 120.355469 399.953125 120.355469 C 399.953125 120.355469 414.082031 118.527344 424.941406 111.519531 C 432.839844 106.429688 436.820312 100.023438 438.417969 96.890625 C 426.683594 97.84375 416.046875 102.269531 407.785156 109.046875 " fill-opacity="1" fill-rule="nonzero"/><path fill="#80cc28" d="M 478.546875 109.039062 C 470.292969 102.269531 459.65625 97.835938 447.921875 96.890625 C 449.519531 100.023438 453.507812 106.429688 461.398438 111.519531 C 472.265625 118.527344 486.394531 120.355469 486.394531 120.355469 C 486.394531 120.355469 484.355469 114.792969 478.546875 109.039062 " fill-opacity="1" fill-rule="nonzero"/><path fill="#80cc28" d="M 440.941406 96.738281 C 438.65625 99.84375 434.925781 105.984375 434.925781 113.0625 C 434.925781 123.269531 442.679688 131.546875 442.679688 131.546875 C 442.679688 131.546875 450.4375 123.269531 450.4375 113.0625 C 450.4375 105.96875 446.695312 99.808594 444.40625 96.710938 C 443.992188 96.703125 443.589844 96.6875 443.179688 96.6875 C 442.421875 96.6875 441.675781 96.703125 440.941406 96.738281 " fill-opacity="1" fill-rule="nonzero"/><path fill="#8d198f" d="M 253.117188 228.507812 L 253.117188 208.53125 L 253.085938 208.53125 C 253.085938 191.972656 239.667969 178.566406 223.121094 178.566406 C 206.574219 178.566406 193.15625 191.972656 193.15625 208.53125 L 193.15625 223.601562 C 185.09375 231.074219 180.023438 241.734375 180.023438 253.597656 C 180.023438 276.175781 200.550781 294.464844 223.121094 294.464844 C 248.632812 294.464844 263.164062 276.175781 263.164062 253.597656 C 263.164062 243.117188 258.523438 235.4375 253.117188 228.507812 " fill-opacity="1" fill-rule="nonzero"/><path fill="#80cc28" d="M 225.738281 185.582031 L 219.492188 185.582031 L 219.492188 168.949219 L 225.738281 168.949219 L 225.738281 185.582031 " fill-opacity="1" fill-rule="nonzero"/><path fill="#629d1e" d="M 209.617188 190.453125 C 205.945312 199.101562 207.765625 207.886719 207.765625 207.886719 C 207.765625 207.886719 215.554688 202.660156 219.226562 194.015625 C 221.816406 187.914062 221.671875 181.765625 221.363281 178.660156 C 220.238281 178.71875 219.132812 178.839844 218.050781 179.027344 C 215.453125 181.371094 211.804688 185.300781 209.617188 190.453125 " fill-opacity="1" fill-rule="nonzero"/><path fill="#629d1e" d="M 237.070312 207.886719 C 237.070312 207.886719 238.894531 199.101562 235.226562 190.453125 C 232.953125 185.109375 229.109375 181.078125 226.507812 178.769531 C 225.515625 178.660156 224.503906 178.601562 223.480469 178.582031 C 223.164062 181.671875 223 187.863281 225.617188 194.015625 C 229.289062 202.660156 237.070312 207.886719 237.070312 207.886719 " fill-opacity="1" fill-rule="nonzero"/><path fill="#80cc28" d="M 194.46875 199.769531 C 196.195312 199.410156 204.34375 197.472656 210.785156 191.785156 C 215.863281 187.324219 218.515625 181.738281 219.65625 178.789062 C 207.707031 180.160156 197.890625 188.566406 194.46875 199.769531 " fill-opacity="1" fill-rule="nonzero"/><path fill="#80cc28" d="M 250.28125 195.929688 C 250.066406 195.457031 249.84375 194.976562 249.601562 194.503906 L 249.394531 194.117188 C 244.765625 185.703125 236.21875 179.75 226.210938 178.726562 C 227.339844 181.671875 229.992188 187.289062 235.097656 191.785156 C 242.34375 198.167969 251.761719 199.839844 251.761719 199.839844 C 251.761719 199.839844 251.617188 199.300781 251.292969 198.390625 L 251.285156 198.363281 C 251.042969 197.722656 250.71875 196.878906 250.28125 195.929688 " fill-opacity="1" fill-rule="nonzero"/><path fill="#80cc28" d="M 223.9375 178.609375 C 223.660156 178.601562 223.394531 178.566406 223.121094 178.566406 C 222.503906 178.566406 221.894531 178.625 221.277344 178.660156 C 219.742188 181.585938 217.441406 186.988281 217.441406 193.191406 C 217.441406 202.492188 222.613281 210.03125 222.613281 210.03125 C 222.613281 210.03125 227.789062 202.492188 227.789062 193.191406 C 227.789062 186.953125 225.460938 181.523438 223.9375 178.609375 " fill-opacity="1" fill-rule="nonzero"/></svg>