<svg xmlns="http://www.w3.org/2000/svg" xmlns:xlink="http://www.w3.org/1999/xlink" width="1200" zoomAndPan="magnify" viewBox="0 0 900 899.99999" height="1200" preserveAspectRatio="xMidYMid meet" version="1.0"><defs><clipPath id="eef6732c04"><path d="M 313.199219 721 L 426.960938 721 L 426.960938 768.554688 L 313.199219 768.554688 Z M 313.199219 721 " clip-rule="nonzero"/></clipPath></defs><rect x="-90" width="1080" fill="#ffffff" y="-89.999999" height="1079.999988" fill-opacity="1"/><rect x="-90" width="1080" fill="#ffffff" y="-89.999999" height="1079.999988" fill-opacity="1"/><rect x="-90" width="1080" fill="#ffffff" y="-89.999999" height="1079.999988" fill-opacity="1"/><path fill="#d68867" d="M 541.546875 765.234375 C 525.066406 763.699219 508.820312 760.292969 492.796875 756.238281 C 493.238281 755.628906 493.683594 755.015625 494.128906 754.410156 C 494.152344 754.414062 494.179688 754.421875 494.203125 754.429688 C 519.070312 740.015625 545.855469 728.613281 573.253906 719.957031 C 573.234375 718.433594 573.085938 716.925781 572.714844 715.472656 C 573.445312 716.6875 573.175781 718.523438 573.355469 719.929688 C 573.496094 723.429688 573.28125 726.953125 573.09375 730.433594 C 572.558594 738.734375 571.667969 747.242188 567.9375 754.769531 C 565.417969 757.886719 562.324219 760.632812 558.945312 762.796875 C 553.796875 766.054688 547.359375 765.464844 541.546875 765.234375 " fill-opacity="1" fill-rule="nonzero"/><path fill="#445c71" d="M 503.144531 607.277344 L 404.351562 607.277344 C 391.375 628.652344 381.746094 650.984375 374.097656 674.941406 C 398.824219 693.363281 424.597656 710.175781 450.9375 726.1875 C 452.003906 726.84375 453.066406 727.496094 454.128906 728.152344 C 483.0625 710.003906 512.921875 693.003906 539.820312 671.863281 C 529.042969 649.632812 517.589844 627.359375 503.144531 607.277344 " fill-opacity="1" fill-rule="nonzero"/><path fill="#4c6377" d="M 262.320312 624.78125 C 295.15625 581.058594 393.421875 651.5 426.964844 672.914062 C 458.28125 693.835938 490.359375 713.8125 521.011719 735.742188 C 520.277344 736.910156 519.519531 738.070312 518.738281 739.210938 C 510.292969 750.207031 500.859375 763.410156 485.679688 765.039062 C 461.824219 769.027344 441.113281 759.167969 419.933594 753.699219 C 380.355469 742.914062 343.683594 727.238281 306.945312 710.839844 C 297.703125 701.859375 289.402344 691.664062 281.394531 681.535156 C 270.125 665.433594 253.660156 645.871094 262.320312 624.78125 " fill-opacity="1" fill-rule="nonzero"/><g clip-path="url(#eef6732c04)"><path fill="#d68867" d="M 425.851562 753.953125 C 425.378906 751.195312 416.40625 743.257812 413.542969 743.117188 C 413.550781 743.117188 413.550781 743.117188 413.550781 743.117188 C 398.847656 739.660156 384.515625 734.457031 369.839844 730.984375 C 369.878906 730.992188 369.917969 731.007812 369.957031 731.015625 C 369.910156 731.003906 369.859375 730.992188 369.816406 730.980469 C 369.820312 730.980469 369.832031 730.984375 369.839844 730.984375 C 361.175781 729.054688 318.78125 717.523438 314.078125 723.46875 C 311.0625 730.8125 316.320312 751.421875 321.992188 757.175781 C 324.945312 760.660156 328.21875 764.378906 332.964844 764.980469 C 363.441406 772.496094 394.863281 766.292969 425.519531 763.230469 C 425.59375 762.21875 425.6875 761.207031 425.796875 760.191406 C 425.632812 760.214844 425.46875 760.242188 425.3125 760.265625 C 426.371094 758.4375 426.121094 755.988281 425.851562 753.953125 " fill-opacity="1" fill-rule="nonzero"/></g><path fill="#506b83" d="M 649.050781 624.832031 C 662.101562 649.886719 621.085938 693.59375 604.429688 710.882812 C 567.691406 727.289062 531.015625 742.964844 491.433594 753.75 C 470.261719 759.214844 449.550781 769.078125 425.695312 765.085938 C 410.507812 763.460938 401.089844 750.25 392.628906 739.257812 C 391.855469 738.121094 391.09375 736.960938 390.363281 735.792969 C 421.007812 713.863281 453.09375 693.878906 484.40625 672.964844 C 517.617188 651.648438 616.601562 581.070312 649.050781 624.832031 " fill-opacity="1" fill-rule="nonzero"/><path fill="#d68867" d="M 809.769531 470.292969 C 799.671875 465.730469 788.660156 464.101562 777.65625 463.839844 C 770.902344 465.15625 764.15625 466.550781 757.402344 467.867188 C 762.875 462.984375 769.269531 457.378906 769.691406 449.535156 C 764.84375 449.96875 760.636719 452.957031 756.277344 454.910156 C 751.5625 457.34375 746.972656 460.058594 742.398438 462.796875 C 739.007812 464.261719 735.53125 465.519531 732.09375 466.882812 C 719.589844 467.039062 706.910156 468.515625 694.421875 469.167969 C 691.175781 469.453125 687.9375 469.296875 684.691406 469.222656 C 684.113281 469.320312 683.335938 469.078125 682.707031 469.207031 L 682.707031 495.246094 C 682.859375 495.226562 682.980469 495.21875 683.078125 495.21875 C 695.914062 492.703125 709.070312 489.5625 722.144531 487.351562 C 752.023438 492.933594 784.265625 486.472656 810 470.394531 C 809.921875 470.359375 809.84375 470.324219 809.769531 470.292969 " fill-opacity="1" fill-rule="nonzero"/><path fill="#d68867" d="M 219.722656 497.015625 C 219.179688 496.910156 218.625 496.804688 218.074219 496.695312 C 218.710938 494.453125 218.46875 492.070312 218.378906 489.769531 C 218.234375 484.199219 218.09375 478.640625 218.164062 473.066406 C 218.6875 473.058594 219.207031 473.054688 219.722656 473.042969 L 219.722656 472.328125 C 219.140625 472.316406 218.546875 472.304688 217.964844 472.300781 C 217.332031 471.535156 216.105469 472.070312 215.308594 471.933594 C 212.0625 472.007812 208.824219 472.164062 205.578125 471.878906 C 193.089844 471.226562 180.410156 469.75 167.90625 469.59375 C 164.46875 468.234375 160.992188 466.972656 157.601562 465.507812 C 153.027344 462.769531 148.4375 460.058594 143.722656 457.621094 C 139.363281 455.667969 135.164062 452.679688 130.308594 452.246094 C 130.730469 460.097656 137.125 465.695312 142.597656 470.578125 C 135.84375 469.261719 129.097656 467.867188 122.339844 466.550781 C 111.257812 466.816406 100.160156 468.472656 90 473.105469 C 115.734375 489.183594 147.976562 495.644531 177.855469 490.0625 C 190.929688 492.273438 204.085938 495.417969 216.921875 497.929688 C 217.34375 497.929688 218.324219 498.113281 219.722656 498.433594 L 219.722656 497.015625 " fill-opacity="1" fill-rule="nonzero"/><path fill="#4e1b1a" d="M 429.417969 486.851562 C 425.328125 502.070312 413.105469 512.78125 402.726562 523.894531 C 408.269531 515.714844 415.511719 508.859375 420.671875 500.410156 C 424.230469 493.421875 427.972656 486.417969 430.964844 479.136719 C 430.429688 481.707031 429.894531 484.277344 429.417969 486.851562 Z M 474.351562 373.585938 C 474.316406 373.527344 474.28125 373.472656 474.25 373.410156 C 474.28125 373.46875 474.316406 373.527344 474.351562 373.585938 Z M 509.21875 416.277344 C 508.6875 398.753906 503.042969 382.125 496.542969 366.019531 C 495.40625 363.46875 494.707031 360.824219 494.578125 358.027344 C 497.121094 364.027344 498.015625 374.433594 504.152344 377.738281 C 509.199219 378.953125 510.765625 370.875 506.738281 368.808594 C 504.980469 368.171875 503.808594 371.886719 505.382812 372.550781 C 505.714844 372.652344 506.0625 372.398438 506.183594 372.09375 C 503.628906 373.949219 506.148438 366.328125 507.128906 371.707031 C 507.527344 374.597656 505.160156 377.117188 503.320312 373.6875 C 498.089844 362.609375 500.648438 348.042969 492.796875 338.121094 C 492.289062 334.257812 491.179688 330.488281 489.578125 326.929688 C 488.992188 322.582031 488.160156 318.273438 486.828125 314.089844 C 485.808594 307.890625 483.199219 301.746094 477.574219 298.417969 C 473.410156 296.355469 469.046875 294.101562 464.277344 294.898438 C 456.957031 285.058594 442.101562 283.894531 431.167969 287.386719 C 410.523438 291.699219 406.214844 312.09375 390.667969 323.363281 C 379.292969 329.445312 369.921875 339.28125 365.109375 351.304688 C 353.953125 363.007812 354.308594 375.878906 351.304688 390.480469 C 342.703125 412.605469 330.417969 399.507812 337.945312 395.664062 C 339.746094 395.796875 338.75 398.53125 338.792969 399.679688 C 338.929688 398.441406 339.480469 397.011719 338.855469 395.847656 C 337.601562 394.527344 335.566406 396.585938 335.164062 397.847656 C 333.765625 404.34375 342.675781 406.964844 347.242188 404.074219 C 336.695312 418.839844 324.015625 434.421875 324.878906 453.625 C 321 471.289062 328.757812 488.679688 329.929688 506.160156 C 329.816406 509.785156 329.816406 525.449219 324.4375 524.59375 C 321.28125 523.40625 322.710938 519.988281 324.101562 522.144531 C 323.871094 521.824219 323.640625 521.507812 323.292969 521.3125 C 320.339844 521.964844 324.417969 527.761719 327.695312 524.089844 C 334.328125 514.605469 334.265625 499.734375 332.308594 488.683594 C 333.539062 492.882812 334.546875 497.167969 335.046875 501.511719 C 334.964844 508.4375 331.246094 541.703125 319.796875 528.988281 C 321.101562 531.523438 322.648438 534.34375 325.316406 535.644531 C 322.359375 542.660156 322.300781 551.09375 324.960938 558.253906 C 322.488281 551.003906 323.589844 542.6875 328.296875 536.558594 C 328.410156 536.578125 328.515625 536.59375 328.628906 536.609375 C 324.457031 554.660156 324.679688 561.8125 337.652344 576.179688 C 342.179688 581.644531 347.691406 587.027344 348.503906 594.460938 C 348.65625 596.789062 349.082031 601.335938 346.125 601.984375 C 345.710938 601.886719 346.242188 601.460938 346.292969 601.234375 C 346.144531 601.445312 345.632812 601.96875 346.113281 602.0625 C 350.554688 601.234375 351.203125 591.671875 350.613281 587.996094 C 354.988281 592.941406 353.074219 600.589844 348.554688 604.757812 C 348.324219 604.992188 348.085938 605.21875 347.851562 605.4375 C 361.496094 607.144531 374.292969 596.9375 379.253906 584.726562 C 384.242188 583.777344 388.828125 581.515625 392.257812 577.777344 C 387.578125 577.964844 382.917969 575.488281 380.785156 571.171875 C 380.527344 568.457031 380.003906 565.753906 379.316406 563.160156 C 377.824219 557.136719 379.75 550.613281 382.003906 545.011719 C 380.097656 553.195312 382.6875 561.878906 383.710938 570.042969 C 383.097656 559.5 383.25 549.488281 389.546875 540.539062 C 388.277344 547.070312 388.40625 553.96875 386.300781 560.382812 C 395.132812 519.515625 409.214844 524.789062 429.609375 496.449219 C 434.765625 488.640625 436.449219 479.3125 439.300781 470.539062 C 442.359375 460.863281 441.878906 450.8125 438.480469 441.253906 C 438.761719 440.484375 439.035156 439.699219 439.296875 438.925781 C 454.957031 455.003906 448.632812 478.910156 436.714844 495.183594 C 447.816406 481.605469 456.394531 462.664062 449.84375 445.253906 C 450.382812 445.019531 450.859375 444.648438 451.210938 444.152344 C 454.269531 463.523438 478.914062 451.066406 491.589844 451.121094 C 495.382812 450.515625 499.921875 450.441406 502.671875 447.402344 C 506.226562 443.144531 507.066406 437.359375 506.867188 431.976562 C 507.671875 415.53125 499.886719 400.300781 497.570312 384.375 C 506.789062 402.835938 509.871094 423.453125 507.617188 443.863281 C 508.125 434.683594 509.941406 425.523438 509.21875 416.277344 " fill-opacity="1" fill-rule="nonzero"/><path fill="#3d1716" d="M 503.753906 442.003906 C 503.171875 440.066406 502.019531 438.234375 499.546875 438.101562 C 494.449219 438.113281 489.511719 439.460938 484.414062 439.234375 C 482.046875 421.121094 479.65625 402.746094 480.089844 384.410156 C 480.335938 378.695312 480.746094 372.765625 479.605469 367.125 C 480.140625 360.09375 477.9375 352.925781 474.363281 346.921875 C 464.4375 330.351562 438.765625 336.40625 423.972656 342.542969 C 424.984375 340.160156 422.441406 337.46875 419.996094 338.386719 C 417.464844 339.855469 416.144531 342.871094 414.085938 344.933594 C 407.386719 351.996094 402.699219 360.589844 399.453125 369.699219 C 400.082031 385.289062 396.230469 400.632812 389.632812 414.6875 C 387.304688 418.625 385.339844 422.765625 382.921875 426.660156 C 381.296875 427.566406 380.632812 429.296875 380.085938 431.023438 C 377.871094 433.957031 375.695312 437.53125 376.542969 441.351562 C 381.460938 459.386719 404.414062 454.042969 418.101562 459.6875 C 420.976562 460.074219 423.917969 460 426.78125 459.527344 C 434.34375 460.632812 441.847656 459.445312 449.273438 458.007812 C 459.828125 459.183594 470.464844 461.164062 480.910156 458.21875 C 485.90625 457.53125 491 456.800781 495.527344 454.441406 C 501.625 451.652344 505.917969 449.710938 503.753906 442.003906 " fill-opacity="1" fill-rule="nonzero"/><path fill="#cf9cd6" d="M 418.523438 606.546875 C 415.648438 606.882812 412.773438 607.199219 409.894531 607.476562 C 403.78125 608.339844 397.96875 608.308594 391.703125 608.820312 C 390.230469 609.65625 388.894531 611.648438 389.113281 613.355469 C 389.519531 614.558594 390.667969 615.195312 391.574219 615.980469 C 392.671875 616.871094 393.636719 617.992188 394.929688 618.617188 C 400.089844 619.886719 405.386719 621.011719 410.730469 621.371094 C 421.503906 621.652344 432.265625 619.894531 443.042969 620.757812 C 463.34375 621.023438 483.816406 622.015625 503.984375 619.398438 C 508.371094 618.164062 513.257812 615.953125 514.351562 611.070312 C 514.882812 609.597656 515.195312 608.082031 515.394531 606.546875 L 418.523438 606.546875 " fill-opacity="1" fill-rule="nonzero"/><path fill="#e6bcec" d="M 392.890625 613.265625 C 371.441406 612.527344 371.90625 588.375 378.140625 573.300781 C 379.304688 570.105469 380.824219 566.789062 379.433594 563.398438 C 377.347656 559.628906 377.3125 556.539062 377.382812 552.359375 C 376.886719 546.875 376.605469 541.320312 375.902344 535.863281 C 373.625 534.511719 371.199219 533.347656 368.894531 532.175781 C 365.765625 532.484375 362.625 532.324219 359.5 532.566406 C 357.148438 532.9375 354.886719 533.898438 352.46875 533.804688 C 350.742188 533.902344 349.035156 533.332031 347.316406 533.453125 C 337.453125 535.953125 323.273438 538.21875 315.625 529.847656 C 309.933594 529.972656 304.570312 527.777344 299.324219 525.820312 C 294.261719 522.523438 287.90625 523.144531 282.128906 522.375 C 278.832031 522.53125 276.332031 525.195312 273.167969 525.929688 C 265.207031 527.53125 256.375 525.972656 248.691406 523.578125 C 246.222656 522.757812 244.136719 521.160156 241.785156 520.085938 C 239.929688 519.371094 238.027344 518.804688 236.203125 518.015625 C 232.746094 516.257812 229.304688 514.660156 225.558594 513.695312 C 221.15625 513.1875 215.308594 513.554688 213.523438 508.4375 C 211.894531 503.25 216.6875 498.644531 215.9375 493.40625 C 215.613281 484.46875 218.253906 477.742188 218.105469 469.859375 C 224.90625 464.941406 233.78125 465.75 241.683594 466.425781 C 244.824219 466.144531 247.957031 465.839844 251.089844 465.582031 C 256.949219 465.117188 262.8125 464.574219 268.644531 463.832031 C 273.652344 461.777344 278.617188 459.5625 283.910156 458.332031 C 290.75 456.675781 297.84375 456.804688 304.796875 455.886719 C 329.398438 448.652344 354.15625 441.789062 379.429688 437.230469 C 388.160156 435.488281 396.960938 434.382812 405.871094 434.738281 C 418.496094 434.472656 431.09375 435.964844 443.710938 435.183594 C 446.570312 436.484375 450.21875 435.953125 453.339844 436.230469 C 456.113281 437.804688 459.589844 436.984375 462.652344 437.058594 C 469.152344 436.855469 475.628906 436.207031 482.136719 436.449219 C 496.242188 436.683594 510.339844 436.101562 524.445312 436.617188 C 526.65625 436.667969 528.867188 436.625 531.078125 436.527344 C 535.605469 437.433594 540.117188 438.425781 544.628906 439.425781 C 562.855469 443.351562 580.753906 448.507812 598.601562 453.855469 C 605.746094 454.898438 613.050781 454.683594 620.09375 456.394531 C 625.386719 457.625 630.355469 459.84375 635.359375 461.898438 C 641.195312 462.640625 647.054688 463.179688 652.917969 463.648438 C 656.050781 463.90625 659.183594 464.210938 662.320312 464.492188 C 670.230469 463.816406 679.101562 463.011719 685.902344 467.921875 C 685.75 475.804688 688.394531 482.535156 688.066406 491.46875 C 687.320312 496.707031 692.109375 501.308594 690.472656 506.503906 C 688.695312 511.617188 682.847656 511.253906 678.449219 511.753906 C 674.703125 512.726562 671.257812 514.324219 667.804688 516.074219 C 665.976562 516.867188 664.070312 517.4375 662.21875 518.148438 C 659.867188 519.226562 657.78125 520.824219 655.3125 521.644531 C 647.628906 524.035156 638.796875 525.59375 630.832031 523.996094 C 627.671875 523.257812 625.171875 520.597656 621.878906 520.441406 C 616.101562 521.210938 609.746094 520.585938 604.675781 523.882812 C 599.433594 525.839844 594.074219 528.035156 588.378906 527.910156 C 580.730469 536.285156 566.542969 534.015625 556.6875 531.519531 C 554.96875 531.394531 553.265625 531.96875 551.535156 531.867188 C 549.117188 531.964844 546.855469 531 544.503906 530.628906 C 542.265625 530.457031 540.015625 530.488281 537.773438 530.410156 C 536.882812 531.328125 535.933594 532.195312 535.128906 533.167969 C 531.917969 539.46875 527.769531 545.265625 525.4375 551.96875 C 523.367188 559.257812 523.269531 567.4375 526.871094 574.25 C 529.988281 582.191406 528.671875 601.113281 520.96875 606.058594 C 515.851562 609.460938 509.203125 609.539062 503.398438 608.894531 C 497.824219 608.554688 492.242188 609.128906 486.667969 609.277344 C 468.664062 610.292969 450.640625 613.679688 432.597656 611.976562 C 425.65625 610.878906 418.421875 610.445312 411.492188 611.226562 C 405.316406 612.140625 399.167969 613.820312 392.890625 613.265625 " fill-opacity="1" fill-rule="nonzero"/><path fill="#d68867" d="M 528.234375 439.144531 C 506.171875 437.535156 484.285156 433.929688 462.132812 433.777344 C 459.625 425.460938 459 416.636719 458.996094 407.957031 C 455.445312 408.503906 452.046875 409.925781 448.386719 409.933594 C 448.390625 409.933594 448.398438 409.933594 448.402344 409.933594 C 448.390625 409.933594 448.375 409.933594 448.363281 409.933594 C 448.367188 409.933594 448.367188 409.933594 448.367188 409.933594 C 448.132812 409.941406 447.890625 409.960938 447.65625 409.964844 C 447.804688 409.960938 447.964844 409.953125 448.117188 409.941406 C 443.863281 410.195312 439.589844 409.65625 435.515625 408.417969 C 434.402344 416.324219 434.339844 424.800781 433.265625 432.808594 C 410.804688 432.476562 388.253906 434.929688 367.121094 442.941406 C 367.367188 443.105469 367.617188 443.269531 367.863281 443.4375 C 375.621094 445.699219 383.457031 447.859375 391.5 448.878906 C 438.191406 456 486.960938 456.078125 531.75 439.449219 C 530.574219 439.347656 529.402344 439.246094 528.234375 439.144531 " fill-opacity="1" fill-rule="nonzero"/><path fill="#cb795b" d="M 449.484375 417.691406 C 449.566406 417.695312 449.644531 417.703125 449.730469 417.707031 C 444.671875 417.476562 439.65625 416.65625 434.75 415.417969 C 434.925781 413 435.222656 410.757812 435.515625 408.417969 C 443.125 410.332031 451.25 411.429688 459.027344 409.902344 C 459.074219 412.351562 459.125 414.804688 459.265625 417.25 C 456.023438 417.632812 452.746094 417.796875 449.484375 417.691406 " fill-opacity="1" fill-rule="nonzero"/><path fill="#d68867" d="M 488.074219 366.191406 C 487.28125 362.21875 487.90625 354.394531 483.085938 353.210938 C 481.347656 335 474.316406 320.859375 459.730469 309.667969 C 447.332031 311.910156 435.898438 317.953125 426.238281 325.933594 C 418.0625 333.070312 414.242188 348.699219 412.648438 359.199219 C 405.375 359.652344 405.957031 369.703125 407.355469 374.902344 C 407.976562 379.171875 409.074219 380.644531 413.320312 381.007812 C 416.324219 401.222656 438.011719 417.886719 458.25 410.695312 C 470.824219 405.71875 478.355469 391.128906 481.359375 378.585938 C 487.726562 378.855469 488.316406 370.902344 488.074219 366.191406 " fill-opacity="1" fill-rule="nonzero"/><path fill="#4e1b1a" d="M 399.230469 441.445312 C 391.726562 446.59375 383.742188 437.589844 383.910156 430.058594 C 382.835938 421.003906 388.613281 413.148438 390.167969 404.535156 C 390.21875 404.039062 389.992188 403.597656 389.644531 403.296875 C 390.070312 399.707031 392.0625 395.082031 389.296875 392.066406 C 389.859375 388.164062 395.550781 367.480469 389.8125 367.34375 C 386.898438 367.25 386.8125 370.792969 386.390625 372.921875 C 385.53125 378.519531 384.472656 384.089844 383.394531 389.652344 C 383.75 385.226562 383.972656 380.785156 384.253906 376.351562 C 384.417969 373.507812 385.339844 368.847656 381.347656 368.441406 C 379.703125 368.339844 378.226562 369.488281 377.90625 371.09375 C 376.554688 381.269531 377.101562 391.804688 374.726562 401.8125 C 370.875 415.0625 365.929688 428.925781 368.59375 442.925781 C 369.523438 447.4375 370.59375 452.984375 374.671875 455.71875 C 368.617188 450.734375 369.679688 441.523438 371.019531 434.621094 C 370.914062 444.398438 377.203125 455.414062 387.371094 457.378906 C 389.023438 457.566406 390.550781 456.863281 391.984375 456.117188 C 385.628906 459.597656 379.839844 452.839844 377.632812 447.410156 C 376.4375 441.035156 377.921875 434.695312 380.085938 428.660156 C 382.191406 438.328125 394.6875 450.621094 402.074219 438.25 C 401.269531 439.402344 400.398438 440.601562 399.230469 441.445312 " fill-opacity="1" fill-rule="nonzero"/><path fill="#4e1b1a" d="M 485.613281 393.503906 C 486.765625 383.179688 488.863281 372.9375 489.246094 362.535156 C 489.988281 363.007812 491 362.800781 491.539062 362.164062 C 490.933594 372.8125 489.628906 383.53125 485.613281 393.503906 Z M 491.636719 352.402344 C 491.640625 352.441406 491.640625 352.480469 491.640625 352.515625 C 491.460938 352.375 491.28125 352.226562 491.101562 352.082031 C 490.855469 351.40625 490.59375 350.730469 490.347656 350.0625 C 490.449219 349.890625 490.527344 349.710938 490.574219 349.527344 C 490.765625 349.46875 490.921875 349.386719 491.058594 349.289062 C 491.289062 350.320312 491.496094 351.355469 491.636719 352.402344 Z M 503.398438 410.28125 C 502.015625 404.445312 499.332031 398.964844 498.425781 393 C 497.808594 386.429688 498.644531 379.773438 499.246094 373.21875 C 500.238281 363.253906 496.738281 353.871094 495.375 344.148438 C 494.671875 336.53125 492.441406 328.882812 488.828125 322.09375 C 487.8125 318.796875 487.078125 315.160156 485.109375 312.296875 C 486.457031 314.3125 486.933594 316.816406 487.523438 319.136719 C 486.460938 317.175781 484.046875 310.125 482.265625 309.585938 C 482.269531 309.597656 482.269531 309.578125 482.269531 309.574219 C 482.269531 309.574219 482.277344 309.574219 482.277344 309.574219 C 483.519531 309.886719 484.683594 313.96875 485.234375 315.300781 C 486.78125 320.433594 488.351562 325.546875 488.980469 330.921875 C 487.875 326.859375 487.035156 322.367188 484.71875 318.816406 C 484.414062 317.953125 484.066406 317.101562 483.839844 316.210938 C 483.996094 317.035156 484.277344 317.871094 484.519531 318.6875 C 481.28125 317.574219 484.054688 324.796875 484.21875 326.222656 C 485.398438 332.265625 487.230469 338.28125 487.621094 344.429688 C 486.011719 341.820312 485.25 338.683594 484.054688 335.84375 C 483.523438 334.921875 483.109375 330.5 481.515625 332.488281 C 480.1875 330.351562 479.582031 327.882812 478.5625 325.59375 C 478.300781 325.164062 477.796875 325.085938 477.394531 325.242188 C 476.671875 319.453125 472.859375 312.875 477.496094 307.765625 C 476.414062 305.886719 475.351562 303.992188 474.355469 302.0625 C 474.042969 301.402344 473.472656 300.851562 472.785156 300.570312 C 471.667969 297.652344 467.984375 298.617188 467.847656 301.042969 C 466.835938 301.605469 465.964844 302.367188 465.085938 303.132812 C 464.15625 302.128906 463.40625 300.925781 462.371094 300.042969 C 460.992188 298.96875 459.164062 300.648438 460.179688 302.078125 C 460.058594 302.105469 459.933594 302.152344 459.804688 302.214844 C 459.445312 301.847656 459.011719 301.472656 458.476562 301.4375 C 457.949219 300.515625 456.453125 301.117188 456.609375 302.136719 C 456.925781 303.378906 457.273438 304.617188 457.648438 305.84375 C 457.15625 305.261719 454.855469 302.691406 455.488281 302.117188 C 454.746094 302.765625 457.1875 305.78125 457.660156 306.574219 C 457.003906 307.476562 456.441406 308.414062 455.882812 309.359375 C 449.453125 312.574219 442.585938 314.773438 435.875 317.296875 C 433.753906 318.085938 431.652344 318.894531 429.503906 319.605469 C 427.476562 319.953125 425.605469 320.957031 426.257812 323.339844 C 420.574219 327.160156 414.550781 330.617188 409.628906 335.425781 C 414.871094 324.652344 424.84375 317.851562 434.414062 310.953125 C 435.683594 310.6875 436.917969 310.269531 438.101562 309.730469 C 440.140625 308.734375 439.09375 305.675781 436.886719 306.074219 C 435.78125 306.347656 434.648438 306.53125 433.519531 306.691406 C 432.828125 306.457031 432.023438 306.585938 431.421875 307.007812 C 412.035156 310.992188 400.320312 334.277344 395.921875 351.945312 C 394.015625 353.9375 387.285156 360.828125 388.96875 363.507812 C 389.59375 364.632812 391.027344 365.117188 392.191406 364.617188 C 393.292969 365.140625 394.609375 364.617188 395.210938 363.585938 C 395.242188 363.8125 395.273438 364.039062 395.308594 364.261719 C 394.4375 365.820312 392.519531 367.898438 393.835938 369.675781 C 393.535156 372.3125 391.292969 377.570312 394.820312 378.683594 C 396.230469 379.105469 397.804688 378.148438 398.109375 376.71875 C 399.4375 381.703125 400.808594 386.679688 401.496094 391.796875 C 402.824219 399.859375 402.421875 408.214844 404.359375 416.171875 C 402.101562 404.695312 403.378906 392.6875 400.488281 381.265625 C 399.976562 378.042969 398.480469 374.773438 399.671875 371.554688 C 401.621094 385.472656 406.601562 398.953125 406.085938 413.199219 C 406.507812 401.925781 404.59375 390.722656 402.492188 379.691406 C 402.097656 375.160156 400.640625 370.355469 402.203125 365.945312 C 404.550781 359.792969 408.601562 354.117188 414.089844 350.410156 C 418.792969 347.652344 424.058594 346.042969 429.0625 343.933594 C 442.125 338.652344 453.421875 329.953125 462.566406 319.273438 C 464.421875 326.09375 466.027344 333.199219 469.636719 339.476562 C 472.445312 345.136719 477.277344 349.367188 480.183594 354.917969 C 485.140625 364.476562 485.492188 376.335938 482.382812 386.539062 C 479.417969 397.160156 474.253906 407.820312 465.441406 414.78125 C 463.875 415.851562 461.878906 417.617188 459.90625 416.707031 C 461.40625 417.542969 463.332031 416.445312 464.648438 415.574219 C 472.847656 410.324219 478.289062 401.789062 482.460938 393.1875 C 482.535156 394.542969 482.027344 397.164062 484.058594 397.164062 C 483.703125 397.9375 483.304688 398.671875 483.050781 399.484375 C 483.582031 398.773438 483.839844 397.914062 484.273438 397.148438 C 485.386719 396.945312 485.511719 395.6875 485.554688 394.589844 C 486.691406 392.167969 487.652344 389.664062 488.527344 387.132812 C 488.277344 391.585938 488.085938 396.046875 488.507812 400.492188 C 488.671875 402.019531 490.796875 401.917969 490.917969 400.472656 C 491.558594 394.53125 491.433594 388.050781 493.941406 382.457031 C 492.085938 394.085938 496.53125 403.507812 499.320312 414.394531 C 500.0625 416.582031 503.210938 416.296875 503.632812 414.085938 C 503.871094 412.835938 503.664062 411.507812 503.398438 410.28125 " fill-opacity="1" fill-rule="nonzero"/><path fill="#cf9cd6" d="M 293.710938 593.503906 C 291.289062 604.402344 283.28125 614.992188 273.296875 619.976562 C 275.203125 624.136719 275.035156 629.101562 273.800781 633.597656 C 272.953125 633.175781 272.121094 632.699219 271.316406 632.1875 L 271.316406 632.179688 C 268.605469 630.4375 266.152344 628.117188 264.851562 625.378906 C 262.203125 629.011719 258.339844 631.832031 254.253906 633.785156 C 253.402344 628.28125 254.867188 622.542969 257.832031 617.84375 C 247.179688 610.660156 245.707031 595.84375 249.023438 584.46875 C 256.742188 588.542969 264.222656 593.953125 267.957031 602.109375 C 274.28125 594.175781 284.378906 591.558594 294.007812 590.71875 C 293.941406 591.726562 293.871094 592.542969 293.710938 593.503906 " fill-opacity="1" fill-rule="nonzero"/><path fill="#cf9cd6" d="M 602.523438 200.855469 C 604.726562 210.597656 601.417969 221.515625 593.664062 227.882812 C 595.519531 230.269531 596.796875 233.121094 597.488281 236.046875 C 597.703125 237 597.859375 237.960938 597.988281 238.933594 C 593.121094 237.714844 589.957031 234.792969 587.980469 230.171875 C 588.300781 235.46875 587.851562 240.863281 583.875 244.558594 C 580.917969 240.761719 581.199219 233.671875 582.316406 229.269531 C 578.988281 228.191406 576.0625 226.332031 573.609375 223.9375 C 573.46875 224.148438 573.1875 223.867188 573.382812 223.71875 C 567.769531 218.144531 564.878906 209.953125 564.765625 201.957031 C 574.667969 202.265625 583.324219 208.96875 587.402344 217.808594 C 585.898438 207.582031 592.730469 198.5625 600.339844 192.605469 C 601.449219 195.222656 602.042969 198.082031 602.523438 200.855469 " fill-opacity="1" fill-rule="nonzero"/><path fill="#faddff" d="M 768.933594 357.886719 C 770.445312 374.121094 757.480469 390.273438 740.941406 391.050781 C 747.726562 396.480469 752.027344 405.199219 750.890625 413.953125 C 742.292969 411.914062 734.996094 404.199219 732.886719 395.707031 C 727.527344 401.425781 716.628906 409.898438 708.484375 409.238281 C 711.707031 402.742188 715.039062 395.167969 721.789062 391.703125 C 708.09375 385.636719 706.128906 372.820312 707.46875 359.230469 C 709.082031 359.261719 710.652344 359.125 712.203125 358.550781 C 724.828125 354.230469 737.363281 364.261719 738.6875 376.949219 C 744.03125 364.449219 756.246094 357.804688 768.933594 357.886719 " fill-opacity="1" fill-rule="nonzero"/><path fill="#faddff" d="M 198.828125 309.335938 C 198.984375 309.675781 199.140625 310.011719 199.289062 310.351562 C 199.300781 310.351562 199.300781 310.359375 199.300781 310.367188 C 199.621094 311.085938 199.914062 311.820312 200.1875 312.554688 C 205.347656 326.820312 202.753906 343.917969 193.359375 355.96875 C 198.304688 355.457031 203.539062 357.691406 207.832031 360.695312 C 204.316406 369.21875 194.699219 373.757812 186.019531 371.304688 C 179.269531 378.996094 167.941406 383.492188 159.554688 377.410156 C 161.09375 371.46875 165.195312 366.761719 170.625 363.996094 C 156.335938 356.734375 148.566406 341.789062 144.980469 326.777344 C 158.832031 324.988281 170.652344 334.566406 179.742188 343.898438 C 179.652344 329.671875 186.996094 316.753906 198.828125 309.335938 " fill-opacity="1" fill-rule="nonzero"/><path fill="#cf9cd6" d="M 607.40625 314.484375 C 616.636719 324.527344 598.976562 338.503906 592.582031 345.542969 C 592.480469 345.324219 592.378906 345.097656 592.277344 344.878906 C 589.386719 337.675781 584.875 330.65625 583.980469 322.878906 C 584.589844 316.050781 591.6875 311.785156 596.175781 318.75 C 598.785156 314.765625 602.921875 311.679688 607.40625 314.484375 " fill-opacity="1" fill-rule="nonzero"/><path fill="#e6bcec" d="M 691.019531 228.710938 C 700.222656 238.777344 682.53125 252.707031 676.121094 259.730469 C 676.023438 259.507812 675.921875 259.285156 675.816406 259.066406 L 675.820312 259.066406 C 673.589844 254.160156 671.34375 249.257812 669.449219 244.21875 C 668.554688 241.925781 667.46875 239.554688 667.582031 237.042969 C 668.199219 230.21875 675.316406 225.964844 679.78125 232.949219 C 682.40625 228.96875 686.542969 225.890625 691.019531 228.710938 " fill-opacity="1" fill-rule="nonzero"/><path fill="#e6bcec" d="M 646.316406 369.183594 C 650.914062 374.320312 642.097656 381.140625 638.855469 384.730469 C 638.804688 384.617188 638.753906 384.507812 638.703125 384.394531 C 637.261719 380.785156 635.011719 377.253906 634.574219 373.359375 C 634.78125 369.996094 638.589844 367.828125 640.6875 371.304688 C 642.003906 369.316406 644.074219 367.773438 646.316406 369.183594 " fill-opacity="1" fill-rule="nonzero"/><path fill="#e6bcec" d="M 655.578125 308.328125 C 659.054688 312.449219 652.394531 317.371094 649.851562 320.246094 C 649.8125 320.164062 649.773438 320.074219 649.734375 319.988281 L 649.738281 319.988281 C 648.636719 317.226562 646.910156 314.519531 646.570312 311.53125 C 646.730469 308.949219 649.648438 307.289062 651.257812 309.957031 C 652.265625 308.429688 653.855469 307.25 655.578125 308.328125 " fill-opacity="1" fill-rule="nonzero"/><path fill="#e6bcec" d="M 508.164062 210.257812 C 507.429688 201.460938 497.898438 181.871094 508.082031 177.460938 C 509.992188 176.558594 511.328125 177.832031 512.203125 179.453125 C 512.203125 179.453125 512.195312 179.457031 512.195312 179.457031 C 512.667969 180.289062 513.027344 181.363281 513.246094 182.167969 C 514.039062 181.464844 514.867188 180.800781 515.726562 180.1875 C 517.628906 178.84375 519.722656 177.757812 521.972656 177.183594 C 542.480469 176.566406 514.941406 204.613281 508.164062 210.257812 Z M 530.054688 176.597656 C 525.519531 172.53125 519.265625 174.644531 514.558594 177.734375 C 512.757812 174.855469 509.855469 173.277344 505.921875 175.582031 C 494.679688 182.832031 504.714844 200.796875 507.695312 210.632812 C 507.691406 210.636719 507.683594 210.644531 507.679688 210.644531 C 507.707031 210.71875 507.734375 210.789062 507.761719 210.863281 C 507.910156 210.746094 508.054688 210.628906 508.203125 210.507812 C 508.203125 210.503906 508.195312 210.496094 508.195312 210.492188 C 516.359375 203.570312 537.796875 187.992188 530.054688 176.597656 " fill-opacity="1" fill-rule="nonzero"/><path fill="#e6bcec" d="M 319.730469 181.695312 C 319.421875 176.125 324.15625 174.820312 327.78125 177.628906 C 327.773438 177.640625 327.761719 177.652344 327.757812 177.664062 C 328.347656 178.105469 328.871094 178.613281 329.289062 179.128906 C 329.675781 178.496094 330.109375 177.882812 330.585938 177.3125 C 330.585938 177.3125 330.582031 177.308594 330.582031 177.308594 C 332.664062 174.847656 336.03125 172.65625 338.429688 175.371094 C 340.824219 181.898438 334.800781 192.855469 331.773438 198.953125 C 326.226562 194.652344 320.972656 188.8125 319.730469 181.695312 Z M 339.546875 173.402344 C 336.128906 170.261719 331.480469 172.734375 328.886719 175.972656 C 317.183594 167.878906 310.023438 186.117188 331.660156 199.183594 C 331.660156 199.183594 331.660156 199.183594 331.660156 199.1875 C 331.722656 199.226562 331.785156 199.261719 331.851562 199.300781 C 331.890625 199.238281 331.9375 199.175781 331.980469 199.117188 C 331.976562 199.109375 331.96875 199.105469 331.964844 199.097656 C 335.746094 192.386719 344.390625 180.847656 339.546875 173.402344 " fill-opacity="1" fill-rule="nonzero"/><path fill="#cf9cd6" d="M 264.503906 322.34375 C 253.570312 330.503906 268.324219 347.511719 273.300781 355.613281 C 273.441406 355.417969 273.582031 355.21875 273.730469 355.019531 C 276.835938 350.625 279.96875 346.230469 282.773438 341.632812 C 284.078125 339.550781 285.59375 337.429688 285.964844 334.941406 C 286.632812 328.125 280.453125 322.609375 274.746094 328.625 C 272.917969 324.226562 269.433594 320.421875 264.503906 322.34375 " fill-opacity="1" fill-rule="nonzero"/><path fill="#e6bcec" d="M 218.535156 231.722656 C 206.847656 238.75 219.835938 257.136719 223.980469 265.703125 C 224.144531 265.511719 224.300781 265.332031 224.464844 265.148438 C 228 261.078125 231.546875 257.023438 234.796875 252.730469 C 236.304688 250.789062 238.023438 248.824219 238.636719 246.390625 C 239.980469 239.671875 234.375 233.566406 228.105469 238.984375 C 226.722656 234.421875 223.632812 230.292969 218.535156 231.722656 " fill-opacity="1" fill-rule="nonzero"/><path fill="#e6bcec" d="M 399.296875 163.511719 C 393.429688 167.128906 399.9375 176.175781 402.023438 180.542969 C 402.101562 180.449219 402.1875 180.355469 402.265625 180.261719 C 404.671875 177.210938 407.835938 174.472656 409.363281 170.867188 C 410.125 167.578125 407.097656 164.417969 404.089844 167.152344 C 403.398438 164.867188 401.851562 162.796875 399.296875 163.511719 " fill-opacity="1" fill-rule="nonzero"/><path fill="#e6bcec" d="M 330.113281 253.410156 C 325.878906 256.644531 331.429688 262.980469 333.328125 266.234375 C 333.382812 266.160156 333.4375 266.082031 333.496094 266.007812 L 333.488281 266.007812 C 335.125 263.519531 337.359375 261.214844 338.292969 258.363281 C 338.652344 255.800781 336.132812 253.585938 334.019531 255.875 C 333.335938 254.175781 332.015625 252.695312 330.113281 253.410156 " fill-opacity="1" fill-rule="nonzero"/></svg>